<svg id="Capa_1" data-name="Capa 1" xmlns="http://www.w3.org/2000/svg" viewBox="0 0 500 500"><defs><style>.cls-1{fill:none;stroke:#259332;stroke-linecap:round;stroke-miterlimit:10;stroke-width:21px;}.cls-2{fill:#203dc9;}.cls-3{fill:#f9f90b;}.cls-4{fill:#f41414;}</style></defs><title>mic</title><line class="cls-1" x1="249.08" y1="361.6" x2="249.08" y2="394.53"/><rect class="cls-2" x="209.29" y="116" width="79.58" height="210.39" rx="39.79"/><path class="cls-3" d="M249,370.86a79.9,79.9,0,0,1-79.81-79.81,9.61,9.61,0,0,1,19.21,0,60.6,60.6,0,0,0,121.2,0,9.61,9.61,0,0,1,19.21,0A79.9,79.9,0,0,1,249,370.86Z"/><path class="cls-4" d="M249.19,370.58a79.83,79.83,0,0,1-60.05-27.24l-6.33-7.22,14.45-12.66,6.33,7.22a60.6,60.6,0,0,0,106.2-39.91h0a9.6,9.6,0,0,1,9.61-9.6h0a9.6,9.6,0,0,1,9.6,9.6h0A79.9,79.9,0,0,1,249.19,370.58Z"/></svg>