<svg id="Capa_1" data-name="Capa 1" xmlns="http://www.w3.org/2000/svg" viewBox="0 0 500 500"><defs><style>.cls-1{fill:none;stroke:#259332;stroke-linecap:round;stroke-miterlimit:10;stroke-width:21px;}.cls-2{fill:#203dc9;}.cls-3{fill:#f9f90b;}.cls-4{fill:#f41414;}</style></defs><title>mic</title><line class="cls-1" x1="246.18" y1="385.9" x2="246.18" y2="430"/><rect class="cls-2" x="192.9" y="57" width="106.57" height="281.74" rx="53.29"/><path class="cls-3" d="M246,398.3A107,107,0,0,1,139.15,291.43a12.87,12.87,0,1,1,25.73,0,81.15,81.15,0,0,0,162.3,0,12.87,12.87,0,1,1,25.73,0A107,107,0,0,1,246,398.3Z"/><path class="cls-4" d="M246.34,397.93a106.94,106.94,0,0,1-80.42-36.48l-8.48-9.68,19.35-16.95,8.48,9.68a81.15,81.15,0,0,0,142.22-53.45h0a12.86,12.86,0,0,1,12.86-12.86h0a12.86,12.86,0,0,1,12.86,12.86h0A107,107,0,0,1,246.34,397.93Z"/></svg>